<?xml version="1.0" encoding="UTF-8" standalone="no"?>
<!-- Created with Inkscape (http://www.inkscape.org/) -->

<svg
   width="181.52661"
   height="105.35651"
   viewBox="0 0 181.52661 105.35651"
   version="1.1"
   id="svg5"
   xml:space="preserve"
   inkscape:version="1.2.2 (732a01da63, 2022-12-09, custom)"
   sodipodi:docname="BeStrongInkScape"
   inkscape:export-filename="../4cc5f79c/BeStrongDark2Svg.svg"
   inkscape:export-xdpi="96"
   inkscape:export-ydpi="96"
   xmlns:inkscape="http://www.inkscape.org/namespaces/inkscape"
   xmlns:sodipodi="http://sodipodi.sourceforge.net/DTD/sodipodi-0.dtd"
   xmlns="http://www.w3.org/2000/svg"
   xmlns:svg="http://www.w3.org/2000/svg"><sodipodi:namedview
     id="namedview7"
     pagecolor="#505050"
     bordercolor="#ffffff"
     borderopacity="1"
     inkscape:showpageshadow="0"
     inkscape:pageopacity="0"
     inkscape:pagecheckerboard="1"
     inkscape:deskcolor="#505050"
     inkscape:document-units="px"
     showgrid="false"
     inkscape:zoom="1"
     inkscape:cx="1509"
     inkscape:cy="866.5"
     inkscape:window-width="1862"
     inkscape:window-height="1016"
     inkscape:window-x="0"
     inkscape:window-y="0"
     inkscape:window-maximized="1"
     inkscape:current-layer="layer1" /><defs
     id="defs2" /><g
     inkscape:label="Camada 1"
     inkscape:groupmode="layer"
     id="layer1"
     transform="translate(-1682.9174,-894.58795)"><g
       id="g2775-3-2-2-2-9-5"
       transform="translate(300.88278,192.85553)"
       style="fill:#ffffff;fill-opacity:1"
       inkscape:export-filename="../3a76c6f0/BeStrongWhitePng.png"
       inkscape:export-xdpi="96"
       inkscape:export-ydpi="96"><g
         aria-label="Strong"
         id="text1875-3-1-2-4-7-0"
         style="font-size:81.1434px;font-family:NATS;-inkscape-font-specification:'NATS, Normal';fill:#ffffff;fill-opacity:1"
         transform="translate(3.0714951,145.38778)"><path
           d="m 1378.9631,636.27065 h 5.1029 q 0,4.34995 2.5096,6.85954 2.5932,2.50959 6.6922,2.50959 3.4298,0 6.023,-2.42594 2.6769,-2.50959 2.6769,-6.35762 0,-4.34996 -3.5971,-6.85955 -1.924,-1.25479 -6.2739,-2.50959 -5.4375,-1.5894 -7.5288,-3.09516 -4.35,-3.09516 -4.35,-9.11817 0,-5.43745 3.6808,-8.95087 3.6807,-3.59708 9.3691,-3.59708 5.5211,0 9.1182,3.76438 3.5971,3.68073 3.5971,9.28548 h -5.0192 q 0,-3.68073 -2.3423,-5.93936 -2.3423,-2.34228 -5.3538,-2.34228 -3.6807,0 -5.8557,2.25863 -2.0913,2.25863 -2.0913,5.35379 0,3.51342 3.0115,5.35379 1.7567,1.17114 7.5287,2.92786 5.5211,1.4221 8.3653,5.01917 2.9279,3.51343 2.9279,8.28165 0,5.5211 -3.9317,9.53644 -3.9317,3.93169 -9.9547,3.93169 -5.5211,0 -9.4528,-2.92785 -4.8519,-3.76439 -4.8519,-10.95854 z"
           id="path1939-37-9-15-16-2-0"
           style="fill:#ffffff;fill-opacity:1" /><path
           d="m 1415.7704,649.40417 v -29.52951 h -7.1105 v -4.51726 h 7.1105 v -11.71142 h 4.8518 v 11.71142 h 7.9471 v 4.51726 h -7.9471 v 29.52951 z"
           id="path1941-9-9-0-5-2-3"
           style="fill:#ffffff;fill-opacity:1" /><path
           d="M 1432.0826,649.40417 V 615.3574 h 4.8518 v 3.84804 q 0.9202,-2.00768 3.7644,-3.59708 2.3423,-1.08749 5.7721,-1.08749 v 5.10283 q -2.4259,0 -4.2663,0.92018 -1.7567,0.83653 -2.9279,2.25863 -2.3423,3.01151 -2.3423,6.7759 v 19.82576 z"
           id="path1943-8-6-9-7-1-4"
           style="fill:#ffffff;fill-opacity:1" /><path
           d="M 1489.803,649.40417 V 615.3574 h 4.8518 v 3.76438 q 0.9202,-1.4221 3.0952,-2.67689 3.0952,-1.92402 7.0268,-1.92402 3.4298,0 5.8558,1.00383 2.5095,0.92019 4.8518,3.26247 2.175,1.84037 3.2625,4.93553 1.0875,3.09516 1.0875,6.9432 v 18.73827 h -4.9355 V 630.6659 q 0,-3.17882 -0.8366,-5.27014 -0.7528,-2.09133 -2.1749,-3.51343 -1.4221,-1.50575 -3.5135,-2.17498 -2.0076,-0.75287 -3.5971,-0.75287 -1.7567,0 -3.597,0.66922 -1.8404,0.66922 -3.5135,2.09133 -1.2548,1.4221 -2.1749,3.59707 -0.8366,2.17498 -0.8366,5.10284 v 18.98923 z"
           id="path1947-6-0-0-8-6-6"
           style="fill:#ffffff;fill-opacity:1" /><path
           d="m 1560.4897,614.52087 v 28.60932 q 0,3.93169 -0.4183,5.85571 -0.5856,3.68073 -2.7605,6.52493 -2.0914,2.92786 -5.8557,4.51727 -3.6808,1.67306 -7.5288,1.67306 -5.2701,0 -9.3691,-2.17498 -6.1067,-3.26247 -8.198,-10.70759 h 5.1028 q 1.3384,3.34612 3.5971,5.43745 3.5134,3.01151 8.7835,3.01151 4.6846,0 7.9471,-2.6769 3.848,-3.17881 3.848,-9.45279 v -1.92402 q -1.5057,2.59325 -5.1865,4.51727 -3.5134,1.5894 -7.5287,1.5894 -7.1106,0 -12.2134,-4.76822 -5.6047,-5.01918 -5.6047,-12.79891 0,-7.77972 5.6047,-12.96621 5.1028,-5.10283 12.2134,-5.10283 3.2624,0 6.2739,1.17114 4.1827,1.75671 6.274,5.10283 l 0.1673,-5.43744 z m -30.5334,16.98156 q 0,5.52109 3.6808,9.53644 3.6807,3.93169 9.2855,3.93169 5.9393,0 9.62,-4.51726 3.2625,-4.01535 3.2625,-8.95087 0,-5.3538 -3.7644,-9.36914 -3.6807,-4.01534 -9.1181,-4.01534 -5.5211,0 -9.2855,4.01534 -3.6808,4.01534 -3.6808,9.36914 z"
           id="path1949-7-6-4-59-3-6"
           style="fill:#ffffff;fill-opacity:1" /></g><text
         xml:space="preserve"
         style="font-style:normal;font-variant:normal;font-weight:normal;font-stretch:normal;font-size:70.2812px;font-family:NATS;-inkscape-font-specification:'NATS, Normal';font-variant-ligatures:normal;font-variant-caps:normal;font-variant-numeric:normal;font-variant-east-asian:normal;fill:#ffffff;fill-opacity:1;stroke-width:0.866137"
         x="1387.0037"
         y="741.00293"
         id="text1875-6-0-2-6-0-4-0-2-0-0"><tspan
           sodipodi:role="line"
           id="tspan1873-5-8-7-0-4-9-1-7-2-2"
           x="1387.0037"
           y="741.00293"
           style="fill:#ffffff;fill-opacity:1;stroke-width:0.866137">Be</tspan></text><g
         id="g1954-8-9-37-3-1-5"
         transform="matrix(0.89235361,0,0,0.89235361,167.93574,144.2014)"
         style="fill:#e3002f;fill-opacity:1"><path
           id="path372-0-3-5-48-0-4-6-5-8"
           style="fill:#9c3733;fill-opacity:1;stroke-width:0.195293"
           d="m 1464.8958,690.60791 c -0.4839,-0.5026 -1.4064,-0.81013 -1.918,-0.92889 -24.2722,-5.5704 -31.5757,28.37201 -23.7794,38.41001 5.2542,3.91496 28.4421,5.16654 38.146,-4.47778 -0.1314,-0.18773 -0.1352,-0.18974 -0.274,-0.34739 -12.5154,-14.82402 -32.3091,-3.42624 -32.6941,-3.07422 1.4973,-2.52175 2.8734,-8.87254 1.197,-15.30835 -1.7086,-6.55954 7.6007,-10.1012 8.065,-10.42644 0.1699,0.76537 6.8976,4.00979 10.1975,2.12873 1.3577,-1.77606 2.3409,-4.3963 1.06,-5.97567 z"
           sodipodi:nodetypes="ccccccsccc" /><path
           style="fill:#24669c;fill-opacity:1;stroke-width:0.899651"
           d="m 1467.1429,693.49035 c 0,0 0.085,1.43784 -0.2912,2.29954 -0.3622,0.83121 -1.1064,1.75433 -1.1064,1.75433 0,0 10.4952,4.1555 8.4314,19.63879 2.6145,1.49884 3.8292,3.50548 3.8292,3.50548 0,0 2.2759,-8.83265 -1.4758,-17.17086 -1.6746,-3.72179 -4.55,-7.34506 -9.3648,-10.0404 z"
           id="path1904-1-8-11-4-6-9"
           sodipodi:nodetypes="cscccscc" /></g></g></g></svg>
